<?xml version="1.0" encoding="UTF-8"?>
<svg width="434px" height="363px" viewBox="0 0 434 363" version="1.1" xmlns="http://www.w3.org/2000/svg" xmlns:xlink="http://www.w3.org/1999/xlink">
    <!-- Generator: Sketch 42 (36781) - http://www.bohemiancoding.com/sketch -->
    <title>Group</title>
    <desc>Created with Sketch.</desc>
    <defs></defs>
    <g id="Identidad-ActualidadBlog-2017" stroke="none" stroke-width="1" fill="none" fill-rule="evenodd">
        <g id="LinuxAdictos-Copy-3" transform="translate(-39.000000, -76.000000)" fill="#414141">
            <g id="Group" transform="translate(39.000000, 76.000000)">
                <path d="M227.770562,350.808885 C277.84131,348.964865 367.46109,331.60096 373.500005,208.5 C385.000005,202.5 410.500005,237.5 432.999991,224.5 C439.500005,194.5 348.000005,156.324943 348.000005,135.5 C348.000005,40.2308807 284.547992,0.5 217.047994,0.5 C149.547995,0.5 88,40.2308807 88,135.5 C88.0000001,154 -2.50000009,190 1,224.5 C17.4999991,237.5 49.500001,201.5 61.9999985,208.5 C58.770291,264.647244 88.7309293,300.179339 123.819604,321.720643 C64.6951756,266.88333 111.168408,152.743821 156.5,136.5 C170.000003,130.5 177.500003,134.5 177.500003,134.5 C177.500003,141 209.500003,170 218.000003,170 C220.570964,170 253.999996,147.000001 254.999996,134.5 C255.179508,132.256098 257.499996,129.5 257.499996,129.5 C259.499996,128 266.612175,130.834497 272.229564,132 C343.677155,155.563722 399.440479,343.966982 227.770557,350.808886 Z M217.549768,350.999612 C217.381791,350.999872 217.214531,351 217.047994,351 C216.761801,351 216.468771,350.997861 216.169044,350.993551 C216.627727,350.996793 217.087968,350.998816 217.549768,350.999612 Z" id="Combined-Shape"></path>
                <path d="M199,344 C199,344 209.560446,344.5 215,344.5 C220.89378,344.5 233,344 233,344 L233,351 L199,351 L199,344 Z" id="Rectangle-126"></path>
                <path d="M126.5,362 C172.063492,362 217,365.5 209,326.5 C209,306.893891 172.063492,287 126.5,287 C80.9365081,287 44,306.893891 44,326.5 C44,371 80.9365081,362 126.5,362 Z" id="Oval-44"></path>
                <path d="M307.5,362 C353.063492,362 398,365.5 390,326.5 C390,306.893891 353.063492,287 307.5,287 C261.936508,287 225,306.893891 225,326.5 C225,371 261.936508,362 307.5,362 Z" id="Oval-44-Copy" transform="translate(307.965341, 324.873248) scale(-1, 1) translate(-307.965341, -324.873248) "></path>
            </g>
        </g>
    </g>
</svg>